<?xml version="1.0" standalone="no"?>
<!DOCTYPE svg PUBLIC "-//W3C//DTD SVG 20010904//EN"
 "http://www.w3.org/TR/2001/REC-SVG-20010904/DTD/svg10.dtd">
<svg version="1.0" xmlns="http://www.w3.org/2000/svg"
 width="512.000000pt" height="512.000000pt" viewBox="0 0 512.000000 512.000000"
 preserveAspectRatio="xMidYMid meet">

<g transform="translate(0.000000,512.000000) scale(0.100000,-0.100000)"
fill="#000000" stroke="none">
<path d="M2345 5114 c-65 -7 -83 -13 -105 -36 -27 -29 -26 -80 3 -114 l23 -26
253 1 c266 2 280 4 300 48 17 38 13 60 -18 95 l-28 32 -194 2 c-107 1 -212 0
-234 -2z"/>
<path d="M1815 5019 c-88 -25 -115 -49 -115 -101 0 -45 35 -88 73 -88 47 0
192 49 210 71 27 34 23 93 -9 118 -33 26 -68 26 -159 0z"/>
<path d="M202 4967 c-49 -19 -100 -63 -125 -110 -19 -36 -22 -57 -22 -142 1
-88 5 -113 37 -206 80 -234 286 -588 544 -937 46 -61 84 -116 84 -120 0 -5
-22 -58 -49 -118 -190 -424 -231 -901 -116 -1357 142 -564 540 -1053 1075
-1322 258 -129 530 -199 830 -212 190 -8 275 1 306 32 33 33 32 87 -1 120 -24
25 -27 25 -202 25 -194 0 -329 16 -482 54 -601 152 -1095 601 -1305 1184 -122
342 -141 754 -49 1107 25 97 78 248 106 301 l14 26 39 -49 c22 -26 93 -113
159 -192 l119 -143 -13 -57 c-24 -109 -41 -227 -41 -283 0 -52 -2 -58 -20 -58
-12 0 -32 -11 -45 -25 -32 -31 -33 -87 -5 -250 106 -618 569 -1097 1195 -1236
203 -45 512 -34 718 26 l82 24 45 -38 c477 -397 941 -720 1265 -878 352 -172
569 -175 658 -9 19 35 22 56 22 146 -1 91 -5 117 -33 200 -80 233 -273 567
-544 938 l-90 123 50 112 c227 510 242 1092 42 1598 -280 708 -917 1196 -1680
1289 -270 32 -738 -17 -807 -86 -44 -44 -21 -124 42 -140 13 -3 64 3 112 14
341 79 676 63 1016 -49 511 -167 932 -558 1137 -1056 99 -240 142 -460 142
-723 0 -314 -57 -557 -201 -850 -37 -76 -50 -112 -46 -130 4 -13 55 -90 114
-170 357 -482 569 -878 574 -1071 2 -76 -10 -89 -82 -89 -238 0 -778 319
-1421 839 -1258 1016 -2619 2535 -3015 3364 -72 150 -97 227 -103 317 -6 95 4
106 92 104 189 -5 591 -221 1067 -575 125 -93 158 -113 187 -113 44 0 82 40
82 88 0 41 -24 64 -205 196 -379 277 -717 472 -945 545 -99 32 -253 43 -308
22z"/>
<path d="M4545 4035 c-35 -34 -33 -81 5 -133 37 -52 63 -66 106 -58 68 13 84
88 34 160 -16 24 -37 46 -45 50 -35 13 -76 6 -100 -19z"/>
<path d="M2300 3995 c-224 -38 -417 -112 -597 -231 -148 -98 -193 -165 -193
-287 0 -86 14 -119 102 -237 195 -259 614 -746 720 -835 32 -27 77 -32 108
-13 17 11 31 1 137 -103 65 -63 148 -142 185 -175 65 -59 67 -62 56 -91 -6
-16 -8 -41 -4 -56 12 -48 548 -476 623 -496 108 -30 223 -1 294 75 123 130
250 400 304 644 22 101 31 379 16 495 -87 663 -594 1193 -1249 1306 -133 22
-381 25 -502 4z"/>
<path d="M4785 3625 c-14 -14 -25 -36 -25 -51 0 -15 24 -89 54 -163 30 -75 66
-179 81 -231 32 -112 56 -144 111 -144 42 0 84 39 84 79 0 76 -155 494 -193
520 -33 23 -84 19 -112 -10z"/>
<path d="M55 1785 c-14 -13 -25 -35 -25 -49 0 -55 128 -375 167 -418 25 -27
88 -24 118 7 35 34 32 68 -14 166 -21 46 -53 127 -71 179 -18 52 -42 105 -53
118 -29 31 -89 30 -122 -3z"/>
<path d="M392 1133 c-17 -6 -42 -57 -42 -83 0 -33 53 -80 90 -80 73 0 109 92
57 148 -20 21 -71 29 -105 15z"/>
<path d="M870 590 c-46 -46 -35 -104 29 -147 45 -31 77 -29 112 6 42 42 40 84
-7 127 -43 41 -101 47 -134 14z"/>
<path d="M1179 371 c-35 -35 -38 -77 -9 -114 29 -37 331 -187 376 -187 42 0
84 37 84 74 0 56 -17 69 -203 164 -100 51 -190 92 -200 92 -10 0 -32 -13 -48
-29z"/>
</g>
</svg>
